# xmcd
#
# Track frame offsets:
#	182
#	22205
#	46205
#	56715
#	70927
#	97352
#	114625
#	144275
#	156097
#	176660
#
# Disc length: 2647 seconds
#
# Revision: 1
# Processed by: cddbd v1.5.2PL0 Copyright (c) Steve Scherf et al.
# Submitted via: EZCDAudioConverter 3.0.7.1
#
DISCID=910a550a
DTITLE=Johnny Winter - Third Degree
DYEAR=1986
DGENRE=Blues
TTITLE0=Mojo Boogie
TTITLE1=Love, Life and Money
TTITLE2=Evil On My Mind
TTITLE3=See See Baby
TTITLE4=Tin Pan Alley
TTITLE5=I'm Good
TTITLE6=Third Degree
TTITLE7=Shake Your Moneymaker
TTITLE8=Bad Girl Blues
TTITLE9=Broke And Lonely
EXTD=
EXTT0=
EXTT1=
EXTT2=
EXTT3=
EXTT4=
EXTT5=
EXTT6=
EXTT7=
EXTT8=
EXTT9=
PLAYORDER=
